<svg xmlns="http://www.w3.org/2000/svg" xmlns:xlink="http://www.w3.org/1999/xlink" width="250.268" height="172.223" viewBox="0 0 250.268 172.223"><defs><style>.a,.c{fill:#ffa07a;}.a,.l,.n{opacity:0.1;}.b{fill:url(#a);}.d,.e{fill:#fff;}.d,.h{opacity:0.2;}.e{opacity:0.07;}.f{fill:#535461;}.g{fill:#774e55;}.i{fill:#5c3d53;}.j{opacity:0.05;}.k{fill:#f8bdc5;}.m{fill:#5e52ad;}.o{fill:#eb6475;}.p{fill:none;stroke:#535461;stroke-miterlimit:10;stroke-width:2px;}</style><linearGradient id="a" x1="0.5" y1="1" x2="0.5" gradientUnits="objectBoundingBox"><stop offset="0" stop-color="gray" stop-opacity="0.251"/><stop offset="0.54" stop-color="gray" stop-opacity="0.122"/><stop offset="1" stop-color="gray" stop-opacity="0.102"/></linearGradient></defs><g transform="translate(0 0.079)"><rect class="a" width="18.642" height="6.991" rx="3.495" transform="translate(76.898 17.882)"/><rect class="a" width="18.642" height="6.991" rx="3.495" transform="translate(132.358 11.59)"/><rect class="a" width="18.642" height="6.991" rx="3.495" transform="translate(122.104 82.663)"/><rect class="a" width="18.642" height="6.991" rx="3.495" transform="translate(130.493 90.353)"/><rect class="a" width="18.642" height="6.991" rx="3.495" transform="translate(180.36 86.857)"/><rect class="a" width="18.642" height="6.991" rx="3.495" transform="translate(28.662 92.45)"/><rect class="a" width="18.642" height="6.991" rx="3.495" transform="translate(116.279 98.042)"/><path class="b" d="M514.143,122.9,505.6,98.1l-3.071.466-2.75.352c.07-.932.191-4.278-1.515-6.033a4.582,4.582,0,0,0-1.44-2.053c-4.087-3.747-4.938,3.917-4.938,3.917s-.932,1.617-2.216,3.878L489,98.5l-.191,1.668c-2.843,5.026-6.62,11.828-6.62,12.467a8.424,8.424,0,0,1-.51,2.384s-2.894,4.768-3.917,7.154a11.44,11.44,0,0,1-2.563,3.747s-.247.189-.652.466a5.821,5.821,0,0,1,.233-1.331c.373-1.219,1.24-2.263,1.47-3.516a4.1,4.1,0,0,0,.061-.911c.054-1.47-.662-2.917-.96-4.388-.347-1.7-.161-3.579-1.07-5.059a5.221,5.221,0,0,0-3.227-2.158,24.791,24.791,0,0,0-3.542-.317c-1.1-.117-2.142-.6-3.237-.781a4.178,4.178,0,0,0-1.776,0c-1.852.51-2.433,2.845-3.863,4.129-.515.466-1.146.788-1.613,1.3a3.9,3.9,0,0,0-.878,2.8,5.964,5.964,0,0,0,.061,1.018c.177,1.219.648,2.372.932,3.568a12.346,12.346,0,0,1,.347,2.7c0,.205,0,.41-.019.613a2.151,2.151,0,0,1-.315,1.165,3.29,3.29,0,0,1-1.065.757,8.26,8.26,0,0,1-2.684-3.808s-.063.079-.17.233v-.233s-2.33-3.421-2.684-6.215l.811.084L453.219,89.8l-4.761-.7a10.864,10.864,0,0,0-1.452-4.751c.8-1.575,1.2-3.707-2.3-3.919-4.1-.249-3.85,2.945-3.414,4.693a11.758,11.758,0,0,0-.233,2.9l-4.194-.611-.023.34h-1l-3.053,26.756,2.6-.131,9.531.993c.762,6.928,1.96,15.489,3.381,17.507a1.723,1.723,0,0,0,.156.193v12.259s-.17,15.846-3.067,18.393a15.146,15.146,0,0,1,5.541-.869q-.049.157-.1.336a29.716,29.716,0,0,0-.883,4.772q-.061.534-.11,1.114a60.089,60.089,0,0,0,.147,10.656c1.193,12.6,3.067,21.629,3.067,21.629l.522,7.326s-.51,12.432.851,16.519a6.168,6.168,0,0,0,1.743,1.13c.012.117.026.233.037.357s.03.315.047.478c-.611.277-1.75,1.377-2,5.7,0,0,.34,3.237-.51,4.768s-.34,5.961,2.214,6.471a13.65,13.65,0,0,0,4.938,0s1.193,0,.34-4.257l-.149-1.091c-.019-2.109.07-4.367.489-5.04a2.427,2.427,0,0,0-.34-2.724s-.084.047-.221.109a20.147,20.147,0,0,1-.4-4.546,3.262,3.262,0,0,1,.035-.361,7.172,7.172,0,0,0,1.443-.995V209.033s-.17-24.864,1.7-25.376c0,0,.851,9.025.51,13.455a42.268,42.268,0,0,0,.51,9.2l.34,18.052s.326.156.853.34l-.035.329c-.207,2.006-.541,5.036-.844,6.891a1.37,1.37,0,0,0-.827.955c-.51,1.7-.17,5.961-1.193,7.154-.6.7-1.326,2.123-.972,3.13-.221.883-.123,2.263,2.505,2.491,3.917.34,5.621-1.7,5.621-1.7a3,3,0,0,0,0-2.384c-.51-1.533.17-4.257.17-4.257s.366-2.312-.233-2.615c-.051-.275-.1-.45-.1-.45a2.051,2.051,0,0,0-.538-1.417,29.456,29.456,0,0,1,.685-7.252c.037-.124.075-.233.114-.361a4.6,4.6,0,0,0,1.44-.506,17.838,17.838,0,0,1,1.023-6.641c1.193-2.724.51-13.625.51-13.625a12.841,12.841,0,0,1,.21-5.185,50.864,50.864,0,0,0,1.85-7.876l1-7.035a28.787,28.787,0,0,0-.839-17.353q-.213-.545-.466-1.091c-.289-.631-.611-1.265-.969-1.894-.056-.1-.117-.2-.175-.3.366-.091.573-.144.573-.144s-4.6-10.719-1.7-16.179a7.1,7.1,0,0,0,1.864-3.423c.289-2.37.6-4.737,1.121-7.068l.091-.41s.014-.079.037-.221c.065-.042.128-.086.191-.133,4.907-3.584,9.139-18.549,9.139-18.549l1.363-2.563.648-1.37-1.328,11.588,10.388,2.563,6.641-.51-.019-1.428,5.061-.394ZM448.291,89.11l-1.846-.27c-.324-1.666-.543-2.759-.543-2.759a10.118,10.118,0,0,0,1.023-1.531,10.611,10.611,0,0,1,1.366,4.551ZM441.4,85.533c.128.438.245.72.245.72l.233,1.922-.629-.091a12.632,12.632,0,0,1,.154-2.561Zm58.209,13.425-2.5.322a9.368,9.368,0,0,0,.534-4.267,2.141,2.141,0,0,0,.685-1.783c1.484,1.773,1.345,4.905,1.279,5.721ZM495.459,96.3a6.191,6.191,0,0,0,2.034-1.144,9.469,9.469,0,0,1-.573,4.148l-2.33.3-.643-.124Z" transform="translate(-346.62 -80.5)"/><path class="c" d="M673.743,103.368l-6.08,2.538L660.6,81.277l1.657-1.967,3.036-.471Z" transform="translate(-506.664 -60.529)"/><path class="d" d="M673.743,103.368l-6.08,2.538L660.6,81.277l1.657-1.967,3.036-.471Z" transform="translate(-506.664 -60.529)"/><path class="c" d="M632.981,80.86,622.43,82.214l5.408,26.061,10.549-.82Z" transform="translate(-477.389 -62.078)"/><path class="e" d="M632.981,80.86,622.43,82.214l5.408,26.061,10.549-.82Z" transform="translate(-477.389 -62.078)"/><path class="f" d="M707.98,140.257l-.168-.021c0-.063.7-6.215-3.162-6.991l.033-.165C708.709,133.889,707.994,140.194,707.98,140.257Z" transform="translate(-555.13 -120.888)"/><rect class="g" width="11.623" height="17.013" transform="translate(113.818 37.326)"/><rect class="h" width="11.623" height="17.013" transform="translate(113.818 37.326)"/><path class="c" d="M647.889,115.684l-6.569.506,1.011-25.6,2.188-1.347,3.032.506Z" transform="translate(-491.877 -68.506)"/><path class="h" d="M647.889,115.684l-6.569.506,1.011-25.6,2.188-1.347,3.032.506Z" transform="translate(-491.877 -68.506)"/><path class="c" d="M610.7,82.583,600.262,80.56l-3.032,26.446,10.274,2.526Z" transform="translate(-458.061 -61.848)"/><path class="c" d="M376.249,35.03h-1.517L371.7,61.474l6.737-.336Z" transform="translate(-285.085 -26.928)"/><path class="h" d="M376.249,35.03h-1.517L371.7,61.474l6.737-.336Z" transform="translate(-285.085 -26.928)"/><path class="c" d="M382.953,33.58,381.1,60.194l16.17,1.685,1.853-25.94Z" transform="translate(-292.295 -25.816)"/><path class="i" d="M525.233,706.808s-2.02-.168-2.358,5.728c0,0,.338,3.2-.506,4.716s-.338,5.9,2.191,6.4a13.5,13.5,0,0,0,4.893,0s1.179,0,.338-4.211l-1.685-12.3Z" transform="translate(-415.036 -560.924)"/><path class="j" d="M525.233,706.808s-2.02-.168-2.358,5.728c0,0,.338,3.2-.506,4.716s-.338,5.9,2.191,6.4a13.5,13.5,0,0,0,4.893,0s1.179,0,.338-4.211l-1.685-12.3Z" transform="translate(-415.036 -560.924)"/><path class="k" d="M551.495,258.238a11.273,11.273,0,0,0,.356,3.961l-4.379,1.179s-7.242,1.011-4.378-1.864a7.712,7.712,0,0,0,1.689-4.483,24.842,24.842,0,0,0,.123-3.691,32.919,32.919,0,0,0-.3-3.449s10.612-3.705,8.254,2.358a21.574,21.574,0,0,0-1.014,3.379A17.807,17.807,0,0,0,551.495,258.238Z" transform="translate(-430.707 -209.62)"/><path class="l" d="M560.054,252.259a21.569,21.569,0,0,0-1.014,3.379,7.256,7.256,0,0,1-6.942-2.288,32.9,32.9,0,0,0-.3-3.449S562.412,246.2,560.054,252.259Z" transform="translate(-437.898 -209.628)"/><circle class="k" cx="7.242" cy="7.242" r="7.242" transform="translate(112.387 31.346)"/><path class="k" d="M481.857,125.65v2.19l-3.705,9.6-1.011-1.011a1.7,1.7,0,0,1-.154-.191c-2.447-3.477-4.227-26.59-4.227-26.59L470.4,90.1s-2.526-6.059,3.029-5.728,1.179,5.558,1.179,5.558,3.705,18.528,3.2,19.2,0,2.7,0,2.7a19.8,19.8,0,0,1,1.347,6.737C478.989,121.43,481.857,125.65,481.857,125.65Z" transform="translate(-375.03 -83.524)"/><path class="k" d="M631.4,130.542l-8.759,18.528-1.347,2.521s-4.194,14.8-9.039,18.346a4.43,4.43,0,0,1-.9.52l-1.011-8.086.932-2.349.07-.179a11.313,11.313,0,0,0,2.526-3.705c1.011-2.358,3.875-7.075,3.875-7.075a8.327,8.327,0,0,0,.506-2.358c0-1.011,9.6-17.687,9.6-17.687s.841-7.58,4.893-3.875S631.4,130.542,631.4,130.542Z" transform="translate(-482.797 -114.018)"/><path class="k" d="M538.214,704.123s-5.728,2.358-5.054.168a17.5,17.5,0,0,0,.077-5.593c-.117-1.144-.247-1.978-.247-1.978l4.894.506a3.959,3.959,0,0,0-.282,1.34A23.588,23.588,0,0,0,538.214,704.123Z" transform="translate(-423.471 -553.187)"/><path class="k" d="M575.845,692.01c-.883,3.067-.653,8.408-.653,8.408s-5.222.673-4.716-.673a71.568,71.568,0,0,0,1.147-8.265c.124-1.186.2-2.009.2-2.009l4.716,1.011A4.712,4.712,0,0,0,575.845,692.01Z" transform="translate(-452.196 -547.626)"/><path class="l" d="M533,696.69l4.894.506a3.961,3.961,0,0,0-.282,1.34,4.994,4.994,0,0,1-4.357.133C533.13,697.522,533,696.69,533,696.69Z" transform="translate(-423.479 -553.164)"/><path class="l" d="M580.429,690.479a4.713,4.713,0,0,0-.7,1.531,9.059,9.059,0,0,1-4.22-.531c.124-1.186.2-2.009.2-2.009Z" transform="translate(-456.083 -547.626)"/><path class="m" d="M532.791,451.656l-.993,6.958a50.315,50.315,0,0,1-1.832,7.79,12.674,12.674,0,0,0-.207,5.127s.673,10.78-.506,13.476a17.667,17.667,0,0,0-1.011,6.569c-2.7,1.517-6.569-.338-6.569-.338l-.338-17.854a41.8,41.8,0,0,1-.506-9.088c.336-4.372-.506-13.306-.506-13.306-1.864.506-1.685,25.1-1.685,25.1v16a5.428,5.428,0,0,1-7.58,0c-1.347-4.043-.841-16.34-.841-16.34l-.506-7.242a212.693,212.693,0,0,1-3.029-21.392,59.426,59.426,0,0,1-.144-10.54q.049-.573.107-1.1a29.408,29.408,0,0,1,.871-4.719,10.615,10.615,0,0,1,.513-1.494l18.1.841,1.067.049,2.563.119c.28.422.543.851.788,1.279.354.622.673,1.249.958,1.864.163.359.317.72.466,1.079A28.47,28.47,0,0,1,532.791,451.656Z" transform="translate(-403.055 -348.051)"/><path class="l" d="M513.458,436.462s-.792,7.923-6.378,5.63q.049-.573.107-1.1c1.314.357,4.952.848,5.089-4.53Z" transform="translate(-403.599 -353.574)"/><path class="l" d="M597.016,437.247c-3.868,1.382-5.327-2.3-5.826-4.4l1.067.049c.58,3.3,2.9,3.5,4.306,3.262Q596.8,436.714,597.016,437.247Z" transform="translate(-468.109 -350.805)"/><path class="i" d="M529.855,717.173c-.86-.135-2.174-.608-1.762-2.26,0,0-1.592-.55-1.424,6.019a20.227,20.227,0,0,1-.506,3.875c-.338.676,0,4.716,3.537,4.379,0,0,2.526.841,3.2-.506,0,0-.506-7.748.338-9.088a2.4,2.4,0,0,0-.338-2.7,3.644,3.644,0,0,1-2.051.466A9.024,9.024,0,0,0,529.855,717.173Z" transform="translate(-418.157 -567.132)"/><path class="i" d="M559.27,746.6s-1.685,2.864,2.191,3.2,5.558-1.685,5.558-1.685a2.963,2.963,0,0,0,0-2.358,9.845,9.845,0,0,1,.168-4.211s.506-3.2-.673-2.526S559.27,746.6,559.27,746.6Z" transform="translate(-443.348 -585.561)"/><path class="j" d="M559.27,746.6s-1.685,2.864,2.191,3.2,5.558-1.685,5.558-1.685a2.963,2.963,0,0,0,0-2.358,9.845,9.845,0,0,1,.168-4.211s.506-3.2-.673-2.526S559.27,746.6,559.27,746.6Z" transform="translate(-443.348 -585.561)"/><path class="i" d="M563.6,727.078s-2.02-.841-2.526.841-.168,5.9-1.179,7.075-2.358,4.379,1.685,4.211,4.893-1.517,4.893-1.517-.168-4.211.338-5.39a5.646,5.646,0,0,0,0-3.029S566.969,726.9,563.6,727.078Z" transform="translate(-443.299 -576.309)"/><circle class="h" cx="0.338" cy="0.338" r="0.338" transform="translate(94.699 9.785)"/><circle class="h" cx="0.338" cy="0.338" r="0.338" transform="translate(101.773 10.626)"/><path class="f" d="M477.25,101.351h-.168c0-.072.119-7.177-3.961-7.832a2.146,2.146,0,0,0-1.953.541c-1.685,1.671-.988,6.39-.981,6.436l-.165.026c-.03-.2-.715-4.852,1.03-6.581a2.3,2.3,0,0,1,2.1-.59C477.371,94.027,477.252,101.278,477.25,101.351Z" transform="translate(-375.055 -90.385)"/><path class="f" d="M702.93,142.588l-.151-.072c.026-.056,2.621-5.679-.809-7.639l.084-.147C705.617,136.767,702.958,142.529,702.93,142.588Z" transform="translate(-553.075 -122.154)"/><path class="l" d="M551.851,289.348l-4.379,1.179s-7.242,1.011-4.378-1.864a7.712,7.712,0,0,0,1.689-4.483c1.144,1.794,2.521,1.284,2.521,1.284l4.176-.082h.016A11.214,11.214,0,0,0,551.851,289.348Z" transform="translate(-430.707 -236.778)"/><path class="l" d="M612.261,287.525a4.432,4.432,0,0,1-.9.52l-1.011-8.086.932-2.349.233-.179C613.619,278.029,612.533,285.775,612.261,287.525Z" transform="translate(-482.804 -231.601)"/><path class="l" d="M505.41,261.54v2.19l-3.705,9.6-1.011-1.011a1.7,1.7,0,0,1-.154-.191C500.978,267.123,505.41,261.54,505.41,261.54Z" transform="translate(-398.583 -219.414)"/><path class="l" d="M534.317,431.528c-2.356.59-14.655,3.479-18.3.743a8.316,8.316,0,0,0-4.723-1.538,10.627,10.627,0,0,1,.513-1.494l18.1.841,1.067.049,2.563.119Q533.952,430.885,534.317,431.528Z" transform="translate(-406.828 -348.036)"/><path class="k" d="M474.1,90.59s2.526,4.211,4.211,0" transform="translate(-378.304 -88.299)"/><path class="k" d="M696.719,127.81s-1.011,5.054,3.029,2.7" transform="translate(-548.961 -116.846)"/><g class="n" transform="translate(104.865 81.211)"><path d="M545.871,524.156c-.082-1.025-.142-1.666-.142-1.666-1.864.506-1.685,25.1-1.685,25.1v16a5.858,5.858,0,0,1-3.344,1.554,5.562,5.562,0,0,0,4.194-1.554v-16S544.764,529.767,545.871,524.156Z" transform="translate(-534.25 -500.768)"/><path d="M536.977,434.5c-.142-.359-.294-.72-.466-1.079-.284-.625-.6-1.251-.958-1.864-.233-.429-.508-.855-.788-1.279l-2.563-.119-1.067-.049-18.1-.841-.016.037,17.274.8,1.067.049,2.563.119c.28.422.543.851.788,1.279.354.622.673,1.249.958,1.864.163.359.317.72.466,1.079a28.482,28.482,0,0,1,.83,17.162l-.993,6.958a50.336,50.336,0,0,1-1.832,7.79,12.673,12.673,0,0,0-.207,5.126s.673,10.78-.506,13.476a17.667,17.667,0,0,0-1.011,6.569,4.893,4.893,0,0,1-2.111.583,5.36,5.36,0,0,0,2.952-.583,17.66,17.66,0,0,1,1.011-6.569c1.179-2.694.506-13.476.506-13.476a12.674,12.674,0,0,1,.207-5.127,50.321,50.321,0,0,0,1.832-7.79l.993-6.958A28.485,28.485,0,0,0,536.977,434.5Z" transform="translate(-513.02 -429.27)"/></g><path class="o" d="M509.892,268.4c2.33,1.1,7.783-3.118,7.783-3.118,2.358.673.673,10.444.673,10.444l-.091.405c-.513,2.3-.823,4.646-1.109,6.991a6.945,6.945,0,0,1-1.832,3.386c-2.864,5.39,1.685,16,1.685,16s-14.655,3.875-18.7.841-10.106-.673-10.106-.673c2.864-2.526,3.029-18.192,3.029-18.192V272.37c.338-5.054,4.893-10.78,4.893-10.78a8.465,8.465,0,0,0,7.044,5.567c1.149,1.864,2.563,1.34,2.563,1.34Z" transform="translate(-389.118 -219.452)"/><path class="l" d="M531.908,202.25a4.131,4.131,0,0,0-1.755,0c-1.832.506-2.407,2.815-3.822,4.083-.508.466-1.135.778-1.6,1.284a4.2,4.2,0,0,0-.811,3.437c.175,1.2.641,2.347.932,3.528a12.207,12.207,0,0,1,.324,3.617,2.128,2.128,0,0,1-.312,1.144c-.338.466-.96.613-1.4.986-1.338,1.151-.233,3.54-1.214,5.01-.422.636-1.212,1.056-1.373,1.8a2.465,2.465,0,0,0,.366,1.55,11.222,11.222,0,0,0,2.33,3.554,10.928,10.928,0,0,0,3.666,1.922c.394.147.888.275,1.188-.016.37-.364.091-.979-.166-1.428a3.037,3.037,0,0,1-.485-2.33c.238-.788,1-1.31,1.512-1.967,1.321-1.7.888-4.143.233-6.194a4.812,4.812,0,0,1-.354-2.663c.1-.378.3-.72.424-1.091.559-1.65-.38-3.46-.1-5.18a7.442,7.442,0,0,1,.7-1.927l1.48-3.181a3.145,3.145,0,0,1,.655-1.03,2.33,2.33,0,0,1,1.631-.508,4.427,4.427,0,0,1,3.176,1.447c1.585,1.762,1.484,4.427,1.293,6.776l-.138,1.7a6.207,6.207,0,0,1-1,3.474c-.6.736-1.566,1.237-1.813,2.155-.214.79.189,1.647-.023,2.437-.317,1.181-1.776,1.608-2.547,2.563a2.622,2.622,0,0,0-.191,2.948c.294.466.762.932.7,1.48-.054.44-.45.8-.447,1.24a.985.985,0,0,0,.715.855,2.889,2.889,0,0,0,1.181.056l4.178-.378a1.47,1.47,0,0,0,.743-.205,1.309,1.309,0,0,0,.426-.953c.168-1.487-.233-3.111.51-4.411.233-.417.576-.764.834-1.165,1.426-2.237-.012-5.271.764-7.809.368-1.2,1.226-2.239,1.454-3.477.3-1.65-.557-3.262-.89-4.894-.343-1.685-.158-3.54-1.058-5.005a5.148,5.148,0,0,0-3.19-2.135,24.6,24.6,0,0,0-3.5-.315C534.027,202.9,532.992,202.425,531.908,202.25Z" transform="translate(-414.164 -173.868)"/><path class="g" d="M531.908,200.8a4.131,4.131,0,0,0-1.755,0c-1.832.506-2.407,2.815-3.822,4.083-.508.466-1.135.778-1.6,1.284a4.2,4.2,0,0,0-.811,3.437c.175,1.2.641,2.347.932,3.528a12.207,12.207,0,0,1,.324,3.617,2.128,2.128,0,0,1-.312,1.144c-.338.466-.96.613-1.4.986-1.338,1.151-.233,3.54-1.214,5.01-.422.636-1.212,1.056-1.373,1.8a2.465,2.465,0,0,0,.366,1.55,11.222,11.222,0,0,0,2.33,3.554,10.927,10.927,0,0,0,3.666,1.922c.394.147.888.275,1.188-.016.37-.364.091-.979-.166-1.428a3.037,3.037,0,0,1-.485-2.33c.238-.788,1-1.31,1.512-1.967,1.321-1.7.888-4.143.233-6.194a4.812,4.812,0,0,1-.354-2.663c.1-.377.3-.72.424-1.091.559-1.65-.38-3.46-.1-5.18a7.439,7.439,0,0,1,.7-1.927l1.48-3.181a3.144,3.144,0,0,1,.655-1.03,2.33,2.33,0,0,1,1.631-.508,4.427,4.427,0,0,1,3.176,1.447c1.585,1.762,1.484,4.427,1.293,6.776l-.138,1.7a6.207,6.207,0,0,1-1,3.474c-.6.736-1.566,1.237-1.813,2.155-.214.79.189,1.647-.023,2.437-.317,1.181-1.776,1.608-2.547,2.563a2.622,2.622,0,0,0-.191,2.948c.294.466.762.932.7,1.48-.054.44-.45.8-.447,1.24a.985.985,0,0,0,.715.855,2.89,2.89,0,0,0,1.181.056l4.178-.377a1.47,1.47,0,0,0,.743-.205,1.309,1.309,0,0,0,.426-.953c.168-1.487-.233-3.111.51-4.411.233-.417.576-.764.834-1.165,1.426-2.237-.012-5.271.764-7.809.368-1.2,1.226-2.239,1.454-3.477.3-1.65-.557-3.262-.89-4.893-.343-1.685-.158-3.54-1.058-5.005a5.148,5.148,0,0,0-3.19-2.134,24.6,24.6,0,0,0-3.5-.315C534.027,201.457,532.992,200.977,531.908,200.8Z" transform="translate(-414.164 -172.756)"/><path class="l" d="M529.75,362.829s3.37,1.011,8.254-1.179h2.524s.168,2.358,6.737,1.347" transform="translate(-420.986 -296.196)"/><ellipse class="a" cx="125.134" cy="11.418" rx="125.134" ry="11.418" transform="translate(0 149.308)"/><rect class="a" width="18.642" height="6.991" rx="3.495" transform="translate(58.722 60.059)"/><rect class="a" width="18.642" height="6.991" rx="3.495" transform="translate(67.111 67.749)"/><rect class="a" width="18.642" height="6.991" rx="3.495" transform="translate(140.513 60.525)"/><rect class="a" width="18.642" height="6.991" rx="3.495" transform="translate(148.902 68.215)"/><rect class="a" width="18.642" height="6.991" rx="3.495" transform="translate(52.896 75.439)"/><rect class="a" width="18.642" height="6.991" rx="3.495" transform="translate(71.538 102.703)"/><rect class="a" width="18.642" height="6.991" rx="3.495" transform="translate(79.927 110.393)"/><rect class="a" width="18.642" height="6.991" rx="3.495" transform="translate(65.713 118.082)"/><rect class="a" width="18.642" height="6.991" rx="3.495" transform="translate(146.572 122.277)"/><rect class="a" width="18.642" height="6.991" rx="3.495" transform="translate(132.358 129.967)"/><g class="n" transform="translate(209.785 89.999)"><path class="p" d="M1005.564,569.234s-3.374-17.095,3.575-28.811a26.4,26.4,0,0,0,3.642-16.3,44.408,44.408,0,0,0-1.631-7.956" transform="translate(-995.081 -504.708)"/><path class="c" d="M1026.5,471.035c-.186,2.039-4.427,7.615-4.427,7.615s-3.151-6.254-2.962-8.3a3.709,3.709,0,1,1,7.388.678Z" transform="translate(-1006.095 -466.984)"/><path class="c" d="M1046.753,515.1c-1.265,1.61-7.853,3.989-7.853,3.989s.755-6.963,2.021-8.573a3.71,3.71,0,1,1,5.826,4.584Z" transform="translate(-1021.277 -499.191)"/><path class="c" d="M1034.9,594.428c-1.906.75-8.792-.522-8.792-.522s4.167-5.63,6.073-6.38a3.71,3.71,0,1,1,2.72,6.9Z" transform="translate(-1011.467 -559.238)"/><path class="c" d="M1014.295,656.5c-1.752,1.063-8.755.972-8.755.972s3.155-6.252,4.907-7.315a3.709,3.709,0,1,1,3.848,6.343Z" transform="translate(-995.691 -607.06)"/><path class="c" d="M1002.522,530.848c1.333,1.557,8.014,3.654,8.014,3.654s-1.049-6.926-2.379-8.48a3.71,3.71,0,1,0-5.635,4.826Z" transform="translate(-992.692 -511.27)"/><path class="c" d="M976.377,600.254c1.736,1.086,8.741,1.088,8.741,1.088s-3.071-6.292-4.81-7.38a3.71,3.71,0,1,0-3.931,6.292Z" transform="translate(-971.986 -563.941)"/><path class="c" d="M964.607,674.12c1.529,1.363,8.431,2.552,8.431,2.552s-1.964-6.723-3.5-8.086a3.71,3.71,0,1,0-4.935,5.534Z" transform="translate(-963.273 -620.822)"/></g><g class="n" transform="translate(185.429 116.239)"><path class="p" d="M881.183,634s-1.811-9.179,1.918-15.471a14.177,14.177,0,0,0,1.955-8.752,23.843,23.843,0,0,0-.872-4.271" transform="translate(-875.619 -599.47)"/><path class="c" d="M892.424,581.651c-.1,1.1-2.377,4.09-2.377,4.09s-1.692-3.358-1.592-4.453a1.992,1.992,0,0,1,3.961.363Z" transform="translate(-881.53 -579.591)"/><path class="c" d="M903.288,605.307c-.68.865-4.218,2.141-4.218,2.141s.405-3.728,1.086-4.6a1.992,1.992,0,0,1,3.132,2.461Z" transform="translate(-889.674 -596.879)"/><path class="c" d="M896.931,647.619c-1.023.4-4.721-.28-4.721-.28s2.237-3.029,3.262-3.426a1.992,1.992,0,0,1,1.461,3.705Z" transform="translate(-884.413 -628.835)"/><path class="c" d="M885.87,680.755c-.932.571-4.7.522-4.7.522s1.694-3.358,2.636-3.929a1.992,1.992,0,1,1,2.065,3.407Z" transform="translate(-875.945 -654.328)"/><path class="c" d="M879.537,613.4c.715.836,4.3,1.962,4.3,1.962s-.562-3.728-1.277-4.553a1.993,1.993,0,0,0-3.029,2.591Z" transform="translate(-874.324 -602.996)"/><path class="c" d="M865.506,650.659c.932.583,4.693.585,4.693.585s-1.65-3.379-2.582-3.962a1.992,1.992,0,1,0-2.111,3.379Z" transform="translate(-863.213 -631.276)"/><path class="c" d="M859.4,690.467c.82.732,4.528,1.37,4.528,1.37s-1.053-3.61-1.864-4.341a1.992,1.992,0,1,0-2.652,2.974Z" transform="translate(-858.75 -661.964)"/></g><g class="n" transform="translate(37.925 117.638)"><path class="p" d="M248.183,640s-1.811-9.179,1.918-15.47a14.177,14.177,0,0,0,1.955-8.752,23.844,23.844,0,0,0-.871-4.271" transform="translate(-242.619 -605.47)"/><path class="c" d="M259.424,587.651c-.1,1.1-2.377,4.09-2.377,4.09s-1.692-3.358-1.592-4.453a1.992,1.992,0,0,1,3.961.364Z" transform="translate(-248.53 -585.592)"/><path class="c" d="M270.288,611.307c-.68.865-4.218,2.141-4.218,2.141s.405-3.728,1.086-4.6a1.992,1.992,0,0,1,3.132,2.461Z" transform="translate(-256.674 -602.879)"/><path class="c" d="M263.931,653.619c-1.023.4-4.721-.28-4.721-.28s2.237-3.029,3.262-3.426a1.992,1.992,0,0,1,1.461,3.705Z" transform="translate(-251.413 -634.835)"/><path class="c" d="M252.87,686.754c-.932.571-4.7.522-4.7.522s1.694-3.358,2.636-3.929a1.992,1.992,0,1,1,2.065,3.407Z" transform="translate(-242.946 -660.328)"/><path class="c" d="M246.537,619.4c.715.836,4.3,1.962,4.3,1.962s-.562-3.728-1.277-4.553a1.993,1.993,0,0,0-3.029,2.591Z" transform="translate(-241.324 -608.996)"/><path class="c" d="M232.506,656.659c.932.583,4.693.585,4.693.585s-1.65-3.379-2.582-3.961a1.992,1.992,0,1,0-2.111,3.379Z" transform="translate(-230.213 -637.276)"/><path class="c" d="M226.4,696.467c.82.732,4.528,1.37,4.528,1.37s-1.053-3.61-1.864-4.341a1.992,1.992,0,1,0-2.652,2.974Z" transform="translate(-225.75 -667.964)"/></g></g></svg>