<svg xmlns="http://www.w3.org/2000/svg" xmlns:xlink="http://www.w3.org/1999/xlink" width="186.17" height="155.426" viewBox="0 0 186.17 155.426"><defs><style>.a,.c{fill:#ffa07a;}.a,.g,.o{opacity:0.1;}.b{fill:none;stroke:#535461;stroke-miterlimit:10;stroke-width:2px;}.d{opacity:0.25;}.e{fill:#b77b7f;}.f{fill:#dda2a6;}.h{fill:#fff;}.i{fill:url(#a);}.j{fill:#67647e;}.k{fill:#444053;}.l{fill:#efb7b9;}.m{fill:#a36468;}.n{fill:#e3787d;}.p{fill:#ffd037;}.q{fill:#65617d;}.r{fill:#9d9cb5;}</style><linearGradient id="a" x1="0.5" y1="1" x2="0.5" gradientUnits="objectBoundingBox"><stop offset="0" stop-color="gray" stop-opacity="0.251"/><stop offset="0.54" stop-color="gray" stop-opacity="0.122"/><stop offset="1" stop-color="gray" stop-opacity="0.102"/></linearGradient></defs><g transform="translate(0 0.003)"><path class="a" d="M208.058,38.535c5.444-4.846,13.989-5.839,21.768-5.453,24.431,1.215,46.483,13.008,65.56,26.35,6.907,4.829,13.705,10.034,18.187,16.685,9.132,13.539,6.418,32.3-6.269,43.449a64.9,64.9,0,0,1-14.924,9.283c-9.553,4.585-19.861,8.265-30.7,9.318a101.249,101.249,0,0,1-23.245-.9c-21.475-2.918-42.551-9.359-60.224-20.377-7.749-4.832-15.053-10.841-18.247-18.655s-1.15-17.729,6.763-22.364c3.273-1.914,7.186-2.779,11.016-3.591,5.639-1.195,11.368-2.372,16.456-4.8,5.257-2.508,11.48-7.36,10.436-12.913C203.52,48.613,202.621,43.38,208.058,38.535Z" transform="translate(-147.707 -33.01)"/><path class="b" d="M785.47,614.678s4.67-8.273,11.7-10.656a14.394,14.394,0,0,0,7.291-5.453,24.135,24.135,0,0,0,2.151-3.869" transform="translate(-657.819 -490.023)"/><path class="c" d="M902.864,571.327c-.8.779-4.534,1.582-4.534,1.582s.915-3.707,1.716-4.484a2.022,2.022,0,1,1,2.818,2.9Z" transform="translate(-749.645 -468.179)"/><path class="c" d="M890.989,604.987c-1.1.218-4.659-1.135-4.659-1.135s2.784-2.609,3.878-2.833a2.023,2.023,0,1,1,.788,3.968Z" transform="translate(-739.882 -495.132)"/><path class="c" d="M855,644.342c-1.057-.373-3.455-3.336-3.455-3.336s3.727-.85,4.778-.485a2.022,2.022,0,1,1-1.323,3.82Z" transform="translate(-711.575 -527.231)"/><path class="c" d="M814.908,666.371c-1.1-.186-3.968-2.7-3.968-2.7s3.524-1.469,4.626-1.286a2.022,2.022,0,1,1-.658,3.99Z" transform="translate(-678.542 -545.078)"/><path class="c" d="M869.59,592.03c0,1.118,2.02,4.355,2.02,4.355s2.024-3.237,2.024-4.354a2.022,2.022,0,1,0-4.044,0Z" transform="translate(-726.261 -486.207)"/><path class="c" d="M825.254,616.178c.335,1.066,3.232,3.552,3.232,3.552s.962-3.7.628-4.762a2.022,2.022,0,0,0-3.86,1.21Z" transform="translate(-690.112 -505.36)"/><path class="c" d="M786.46,649.544c.149,1.107,2.585,4.048,2.585,4.048s1.573-3.479,1.424-4.586a2.022,2.022,0,1,0-4.009.539Z" transform="translate(-658.609 -532.781)"/><path class="d" d="M902.864,571.327c-.8.779-4.534,1.582-4.534,1.582s.915-3.707,1.716-4.484a2.022,2.022,0,1,1,2.818,2.9Z" transform="translate(-749.645 -468.179)"/><path class="d" d="M890.989,604.987c-1.1.218-4.659-1.135-4.659-1.135s2.784-2.609,3.878-2.833a2.023,2.023,0,1,1,.788,3.968Z" transform="translate(-739.882 -495.132)"/><path class="d" d="M855,644.342c-1.057-.373-3.455-3.336-3.455-3.336s3.727-.85,4.778-.485a2.022,2.022,0,1,1-1.323,3.82Z" transform="translate(-711.575 -527.231)"/><path class="d" d="M814.908,666.371c-1.1-.186-3.968-2.7-3.968-2.7s3.524-1.469,4.626-1.286a2.022,2.022,0,1,1-.658,3.99Z" transform="translate(-678.542 -545.078)"/><path class="d" d="M869.59,592.03c0,1.118,2.02,4.355,2.02,4.355s2.024-3.237,2.024-4.354a2.022,2.022,0,1,0-4.044,0Z" transform="translate(-726.261 -486.207)"/><path class="d" d="M825.254,616.178c.335,1.066,3.232,3.552,3.232,3.552s.962-3.7.628-4.762a2.022,2.022,0,0,0-3.86,1.21Z" transform="translate(-690.112 -505.36)"/><path class="d" d="M786.46,649.544c.149,1.107,2.585,4.048,2.585,4.048s1.573-3.479,1.424-4.586a2.022,2.022,0,1,0-4.009.539Z" transform="translate(-658.609 -532.781)"/><path class="b" d="M786.91,583.837s.917-9.456,6.381-14.484a14.4,14.4,0,0,0,4.454-7.941,24.067,24.067,0,0,0,.4-4.411" transform="translate(-658.99 -459.349)"/><path class="c" d="M848.588,527.585c-.417,1.036-3.5,3.284-3.5,3.284s-.663-3.761-.246-4.8a2.022,2.022,0,1,1,3.75,1.511Z" transform="translate(-706.01 -433.117)"/><path class="c" d="M849.156,561.359c-.913.643-4.726.852-4.726.852s1.491-3.517,2.4-4.16a2.022,2.022,0,1,1,2.328,3.308Z" transform="translate(-705.79 -459.904)"/><path class="c" d="M828.17,612.1c-1.118.093-4.51-1.651-4.51-1.651s3.058-2.285,4.163-2.38a2.023,2.023,0,1,1,.339,4.031Z" transform="translate(-688.891 -500.894)"/><path class="c" d="M801.732,648.2c-1.081.28-4.722-.865-4.722-.865s2.626-2.771,3.707-3.051a2.022,2.022,0,1,1,1.016,3.914Z" transform="translate(-667.208 -530.313)"/><path class="c" d="M822.111,562.154c.451,1.021,3.612,3.168,3.612,3.168s.539-3.78.086-4.8a2.022,2.022,0,1,0-3.7,1.636Z" transform="translate(-687.49 -461.234)"/><path class="c" d="M791.373,602.2c.736.839,4.393,1.938,4.393,1.938s-.617-3.768-1.355-4.607a2.022,2.022,0,1,0-3.038,2.669Z" transform="translate(-662.212 -493.391)"/><path class="c" d="M769.414,648.419c.585.953,4,2.652,4,2.652s.028-3.817-.559-4.769a2.022,2.022,0,0,0-3.446,2.117Z" transform="translate(-644.51 -531.224)"/><ellipse class="a" cx="22.155" cy="3.714" rx="22.155" ry="3.714" transform="translate(47.577 147.994)"/><ellipse class="a" cx="22.155" cy="3.714" rx="22.155" ry="3.714" transform="translate(91.185 119.482)"/><path class="e" d="M601.217,397.542l-.021.725-1.26,44.452H597.82l1.038-44.452.021-.837Z" transform="translate(-486.407 -323.365)"/><path class="f" d="M566.536,590.847l-1.586,0-23.564-.05-1.256,0,.669-2.061h25.569Z" transform="translate(-439.468 -479.014)"/><path class="g" d="M605.749,397.542l-.021.725H603.39l.02-.837Z" transform="translate(-490.939 -323.365)"/><rect class="e" width="3.927" height="1.478" transform="translate(111.777 73.09)"/><path class="g" d="M541.595,588.73l-.209,2.063-1.256,0,.669-2.061Z" transform="translate(-439.468 -479.014)"/><path class="f" d="M532.578,392.05l-.065.641-5.228,51.556-2.395-.114,5.509-51.443.062-.585Z" transform="translate(-427.068 -318.988)"/><path class="g" d="M673.96,590.847l-1.586,0-.214-2.113h1.633Z" transform="translate(-546.892 -479.014)"/><path class="f" d="M661.708,444.134l-2.4.114-5.226-51.556-.065-.641,2.115.056.062.585Z" transform="translate(-532.133 -318.988)"/><rect class="h" width="52.809" height="50.636" transform="translate(86.853 22.182)"/><path class="f" d="M705.335,56.749V68.977h-2.059V56.749a1.031,1.031,0,1,1,2.059,0Z" transform="translate(-590.942 -51.454)"/><rect class="g" width="2.061" height="1.113" transform="translate(112.332 16.41)"/><path class="f" d="M702.666,123.371v4.037H699v-4.037a.5.5,0,0,1,.5-.5h2.667A.5.5,0,0,1,702.666,123.371Z" transform="translate(-587.464 -106.126)"/><circle class="g" cx="0.779" cy="0.779" r="0.779" transform="translate(112.584 18.528)"/><circle class="e" cx="0.779" cy="0.779" r="0.779" transform="translate(112.584 18.36)"/><rect class="g" width="3.677" height="0.501" transform="translate(111.525 20.783)"/><rect class="g" width="6.685" height="1.114" transform="translate(110.021 21.452)"/><rect class="f" width="6.685" height="1.114" transform="translate(110.021 21.116)"/><path class="g" d="M530.431,384h28.076a1.211,1.211,0,0,1,1.211,1.211v.265h-30.5v-.265A1.211,1.211,0,0,1,530.431,384Z" transform="translate(-430.591 -312.438)"/><path class="g" d="M554.511,392.106l2.117-.056-.065.641H554.45Z" transform="translate(-451.119 -318.988)"/><rect class="g" width="3.927" height="0.613" transform="translate(111.777 73.09)"/><path class="g" d="M656.2,392.691h-2.112l-.065-.641,2.115.056Z" transform="translate(-532.133 -318.988)"/><path class="f" d="M530.431,385.77h28.076a1.211,1.211,0,0,1,1.211,1.211v.265h-30.5v-.265a1.211,1.211,0,0,1,1.211-1.211Z" transform="translate(-430.591 -313.878)"/><path class="i" d="M425.954,194.013c-.423-.224-5.032-3.7-5.032-3.7l-7.438-4.717s-.039-.112-.11-.3c2.041-2.317,1.6-5.679-.481-8.042-2.516-2.866-13.884-9.037-17.31-3.759a5.785,5.785,0,0,0-.621,2.412,10.016,10.016,0,0,1-2.715,5.33c-1.141,1.206-2.637,2.317-3.293,3.681a.223.223,0,0,0-.019-.052,3.421,3.421,0,0,0-.341.932c-.326,1.664.792,3.26,1.387,4.879a8.856,8.856,0,0,1,.432,1.692c.015-.116.028-.229.041-.345a10.82,10.82,0,0,1,.147,2.49c-4.128.841-4.13,7.9-4.13,7.9a24.117,24.117,0,0,0-.423,3.819c.086,1.012.084,3.2.084,3.727s-.509,3.817-.559,4.212a.1.1,0,0,1,0,.017c-.075.432-.848,2.516,1.021,2.982.13.034.268.062.412.088.08,1.687.225,5.218.1,6a39.32,39.32,0,0,0,1.245,5.951,13.686,13.686,0,0,0,1.249,2.016,2.221,2.221,0,0,1-.287.818c-.289.416-.14.757.343.9-.017.144-.035.306-.056.488-.207,1.83-.516,5.468.009,7.311a18.654,18.654,0,0,1,.764,3.369,2.458,2.458,0,0,0,.3,1.178,25.775,25.775,0,0,1,.848,4.97c0,.632,1.442,6.316,1.018,7.663a8.2,8.2,0,0,0-.084,3.243,26.882,26.882,0,0,1-.559,4.042c-.3.716-.425,12.254.041,15.243s.764,5.474.764,5.474a12.463,12.463,0,0,0-.043,3.116c.253.378.721,2.654.382,2.779s-.509,1.053-.509,1.053a9.4,9.4,0,0,0,.58.788,3.182,3.182,0,0,1-.382-.162c.134.186.335.451.583.745l-.233,3.028a.507.507,0,0,0,.373.531,4.262,4.262,0,0,0,4.216-1.185c2.121-2.147,2.842-1.852,3.224-3.157.041-.14.076-.278.106-.408a1.375,1.375,0,0,0-1.951-1.532,9.869,9.869,0,0,0,.14-2.557,37.744,37.744,0,0,1-.17-4.421l-.3-15.329a20.681,20.681,0,0,1,1.187-4.21c.637-1.178.559-5.306.559-5.306l.721-13.56.678-6.61s.678-2.274,1.526.253a49.957,49.957,0,0,0-.253,6.316,55.987,55.987,0,0,1,.3,8.463c-.212,1.3-1.144,8.465-.559,10.274s1.237,4,1.107,4.721-.559,16.253-.559,16.253,1.146,2.982.3,3.958-.043,4.846-.043,4.846.1.073.278.173l-.024.322-.266,3.483a.511.511,0,0,0,.373.533,4.26,4.26,0,0,0,4.216-1.185c2.121-2.149,2.842-1.852,3.224-3.159.041-.14.076-.276.108-.408a1.378,1.378,0,0,0-2.221-1.36l-.05.043a1.758,1.758,0,0,1-.166.125.8.8,0,0,1-.084.054,11.426,11.426,0,0,0,.373-3.381,25.755,25.755,0,0,1,.211-4.588,35.76,35.76,0,0,0,1.273-5.777l.339-13.137s-.041-5.349.129-6.653,1.526-12.591,2.883-15.96c1.042-2.579,1.508-9.162,1.232-12.5-.015-.164-.03-.322-.048-.47a4.922,4.922,0,0,0,1.83-3.271,17.369,17.369,0,0,0-3-4.154,5.634,5.634,0,0,1-1.735-4.264,2.214,2.214,0,0,0-.509-1.515s-.678-2.19-1.131-2.413a.354.354,0,0,1-.1-.075c-.308-.33-.071-1.273-.071-1.273v-.03a8.069,8.069,0,0,0,.278-1.992,13.425,13.425,0,0,1,.056-2.246,18.024,18.024,0,0,0,.906-5.727,1.976,1.976,0,0,1,2.207-2.3l7.337-.076h.835a5.878,5.878,0,0,0,.8-.831c1.4-.166,4.225-.693,4.542-2.236A5.039,5.039,0,0,0,425.954,194.013ZM391.96,217.375l.05-1.284c.173.149.289.244.289.244a2.009,2.009,0,0,1,.013,1.029,1.1,1.1,0,0,1-.635.712.773.773,0,0,0-.1.054l-.071-.725Zm26.613-22.55a7.844,7.844,0,0,0-1.9-.112,4.22,4.22,0,0,1-1.413-.449c-.186-.363-1.217-.58-2.134-.7-.7-1.718-1.677-3.394-1.81-5.185a1.378,1.378,0,0,0-.009-.2l.106.186s4.272,2.725,4.752,3.541a17.539,17.539,0,0,0,3,2.635.856.856,0,0,1-.457.306A.251.251,0,0,1,418.573,194.825Z" transform="translate(-332.269 -145.629)"/><path class="j" d="M491.709,823.983c-.032.13-.065.267-.106.4-.373,1.3-1.086,1-3.168,3.133a4.171,4.171,0,0,1-4.15,1.178.5.5,0,0,1-.373-.529l.263-3.455.125-1.662s3.325.932,5.017-.252a2.012,2.012,0,0,0,.164-.125q.02-.018.037-.037a1.359,1.359,0,0,1,2.192,1.346Z" transform="translate(-412.459 -675.227)"/><path class="j" d="M435.709,816.983c-.032.13-.065.267-.106.4-.373,1.3-1.086,1-3.168,3.133a4.171,4.171,0,0,1-4.15,1.178.5.5,0,0,1-.373-.529l.263-3.455.125-1.662s3.325.932,5.017-.252a2,2,0,0,0,.164-.125.5.5,0,0,0,.037-.037,1.359,1.359,0,0,1,2.192,1.346Z" transform="translate(-366.896 -669.531)"/><path class="g" d="M430.761,826.707l.134,1.8c-1.908,1.906-4.18-.932-4.845-1.864C427.8,827.542,430.761,826.707,430.761,826.707Z" transform="translate(-365.382 -678.737)"/><path class="g" d="M490.178,826l.25-.166c-1.743,2.65-4.331,1.428-5.138.952l.125-1.662s3.325.932,5.017-.252C490.3,825.519,490.178,826,490.178,826Z" transform="translate(-413.582 -677.297)"/><path class="k" d="M432.671,498.558c-1.338,3.342-2.674,14.537-2.842,15.841s-.125,6.6-.125,6.6l-.335,13.025a35.782,35.782,0,0,1-1.254,5.725,25.769,25.769,0,0,0-.209,4.553,15.515,15.515,0,0,1-.542,4.1l.25-.168c-2.089,3.168-5.39.794-5.39.794s-.794-3.843.043-4.8-.293-3.927-.293-3.927.417-15.416.542-16.126-.5-2.883-1.087-4.68.336-8.9.544-10.194a56.094,56.094,0,0,0-.293-8.4,50.07,50.07,0,0,1,.25-6.268c-.835-2.507-1.5-.25-1.5-.25l-.669,6.558-.71,13.454s.084,4.1-.542,5.265a20.7,20.7,0,0,0-1.17,4.176l.293,15.209a37.915,37.915,0,0,0,.168,4.385,18.244,18.244,0,0,1-.46,4.346c-2.339,5.511-6.1-.464-6.1-.464s.168-.919.5-1.044-.125-2.382-.373-2.758a12.55,12.55,0,0,1,.041-3.092s-.293-2.464-.745-5.431-.334-14.414-.041-15.124a27.531,27.531,0,0,0,.542-4.011,8.23,8.23,0,0,1,.084-3.219c.417-1.338-1-6.976-1-7.6a25.791,25.791,0,0,0-.835-4.929,2.464,2.464,0,0,1-.293-1.17,18.671,18.671,0,0,0-.745-3.342c-.518-1.83-.212-5.438-.009-7.255.073-.673.136-1.1.136-1.1s23.961-3.886,24.917-3.008a3.845,3.845,0,0,1,.46,1.929C434.162,489.465,433.692,496.007,432.671,498.558Z" transform="translate(-350.767 -400.033)"/><path class="g" d="M491.34,662.2a22.276,22.276,0,0,0,3.727.028C496.036,662.03,491.34,662.2,491.34,662.2Z" transform="translate(-418.504 -544.887)"/><path class="g" d="M492.39,670.858s3.655.641,3.841.308S492.39,670.858,492.39,670.858Z" transform="translate(-419.359 -551.987)"/><path class="g" d="M432.46,667.27a10.041,10.041,0,0,1,2.924.559C436.415,668.3,432.46,667.27,432.46,667.27Z" transform="translate(-370.598 -549.068)"/><path class="l" d="M395.54,415.656s.306,5.82.14,6.851a39.076,39.076,0,0,0,1.224,5.9,17.065,17.065,0,0,0,1.756,2.7l1.644-11.555-.391-3.958Z" transform="translate(-340.558 -344.301)"/><circle class="l" cx="6.433" cy="6.433" r="6.433" transform="translate(65.817 31.972)"/><path class="l" d="M451.9,254.255a25.464,25.464,0,0,1-4.011,5.766c-2.005,1.838,12.032,3.927,12.365,3.927s-2.507-8.355-2.005-9.363S451.9,254.255,451.9,254.255Z" transform="translate(-382.996 -212.844)"/><path class="g" d="M434.965,486.155a4.179,4.179,0,0,1-1.032.578c-2.561,1-5.347,2.395-7.24,1.839s-5.9,0-5.9,0-8.079-.669-9.691-.28a3.159,3.159,0,0,1-1.677.043c.073-.673.136-1.1.136-1.1s23.989-3.886,24.945-3.008A3.833,3.833,0,0,1,434.965,486.155Z" transform="translate(-351.852 -400.033)"/><path class="m" d="M423.359,316.171a4.677,4.677,0,0,1-2.786,3.789c-2.564,1-5.347,2.395-7.24,1.839s-5.9,0-5.9,0-8.079-.669-9.691-.28-2.453-.11-1.951-.835.447-3.12.447-4.122-.559-5.069-.058-5.794.947-3.509,1.949-3.957a1.092,1.092,0,0,0,.626-.706,2.02,2.02,0,0,0-.013-1.019s-.17-.14-.4-.347c-.591-.527-1.59-1.506-1.269-1.826.445-.447,0-3.343,0-3.343s-1.059-2.227-.667-3.062-3.4-5.237-3.4-5.237,0-7.574,4.568-7.909c0,0,3.232.112,3.621-1.336s2.952-2.285,2.952-2.285l5.85,1.282s5.179,1.118,6.128.445,1.677.891,1.677.891,3.23.168,3.563.837-1.057,7.184-1.057,7.184a1.953,1.953,0,0,0-2.173,2.285,17.866,17.866,0,0,1-.9,5.682,13.4,13.4,0,0,0-.056,2.227,7.621,7.621,0,0,1-.272,1.977v.028s-.233.932.069,1.264a.372.372,0,0,0,.1.075c.447.222,1.118,2.395,1.118,2.395a2.2,2.2,0,0,1,.5,1.5,5.645,5.645,0,0,0,1.728,4.234A17.145,17.145,0,0,1,423.359,316.171Z" transform="translate(-338.492 -233.761)"/><path class="m" d="M393.66,351.674v.237l-.1,2.609a21.9,21.9,0,0,1-5.293-.186c-1.866-.464-1.081-2.535-1.006-2.963a.07.07,0,0,0,0-.017c.054-.391.559-3.649.559-4.178s0-2.7-.084-3.7a24.52,24.52,0,0,1,.41-3.8l.362-.444,3.925,1.5Z" transform="translate(-333.637 -282.164)"/><path class="g" d="M393.61,404.94l-.1,2.609a21.9,21.9,0,0,1-5.293-.186c-1.865-.464-1.081-2.535-1.006-2.963Z" transform="translate(-333.596 -335.188)"/><path class="g" d="M422.046,405.7a2.021,2.021,0,0,0-.013-1.019s-.17-.14-.4-.347c2.95-.412,14.633-2.015,18.568-2.19v.028s-.233.932.069,1.264Z" transform="translate(-361.786 -333.35)"/><path class="g" d="M514.987,432s.725,4.1-1.977,5.543A12.385,12.385,0,0,0,514.987,432Z" transform="translate(-436.136 -357.645)"/><path class="g" d="M428.72,459.837s6.523-1.118,7.8-.25S428.72,459.837,428.72,459.837Z" transform="translate(-367.555 -379.822)"/><path class="g" d="M509.2,326.22s-1,4.122-.252,5.069S509.2,326.22,509.2,326.22Z" transform="translate(-432.607 -271.578)"/><path class="g" d="M410.045,308.14a4.06,4.06,0,0,1,.362,3.12C409.849,312.848,410.045,308.14,410.045,308.14Z" transform="translate(-352.333 -256.868)"/><path class="g" d="M400,380.18s1.17.7.781,1.782S400,380.18,400,380.18Z" transform="translate(-344.187 -315.482)"/><path class="g" d="M399.43,363.14s1.085.585,1.224,1.448S399.43,363.14,399.43,363.14Z" transform="translate(-343.723 -301.618)"/><path class="g" d="M485.81,537.869s6.825.7,8.189-.919C494,536.959,487.843,538.176,485.81,537.869Z" transform="translate(-414.005 -443.036)"/><path class="g" d="M422.59,539.79s7.326,1.728,8.774.362C431.364,540.151,425.069,540.625,422.59,539.79Z" transform="translate(-362.567 -445.346)"/><path class="g" d="M488.65,554s3.064,0,4.484.084S488.65,554,488.65,554Z" transform="translate(-416.316 -456.908)"/><path class="g" d="M425.28,561s1.5,1.7,3.2,1.394S425.28,561,425.28,561Z" transform="translate(-364.756 -462.603)"/><path class="n" d="M411.19,178.711a5.755,5.755,0,0,0-.611,2.393,9.972,9.972,0,0,1-2.672,5.289c-1.336,1.42-3.168,2.708-3.515,4.443-.328,1.647.785,3.233,1.368,4.846,1.537,4.229-.609,8.664-1.236,13.029-.173,1.206.035,2.747,1.521,3.148a8.433,8.433,0,0,1,1.413.311,1.7,1.7,0,0,1,.833,1.327,20.28,20.28,0,0,1,.384,5.457c-.067,1.025-.142,2.2.827,2.909a4.894,4.894,0,0,0,1.6.641c1.526.412,3.5.745,4.529-.222.432-.4.595-.975,1.133-1.3.807-.479,1.951-.155,2.967-.1a5.388,5.388,0,0,0,4.823-2.592,6.972,6.972,0,0,0,.447-4.758,30.216,30.216,0,0,1-.868-4.782,2.777,2.777,0,0,1,.358-1.623c.621-.96,2.065-1.4,3.053-2.151,1.851-1.416,1.845-3.737,1.172-5.679s-1.88-3.8-2.029-5.811a2.211,2.211,0,0,1,.274-1.4,5.694,5.694,0,0,1,1.118-1.051c2.7-2.281,2.382-6.027.149-8.591C425.76,179.6,414.563,173.476,411.19,178.711Z" transform="translate(-347.712 -149.894)"/><g class="o" transform="translate(56.536 35.403)"><path d="M405.736,255.625a10.612,10.612,0,0,0-.427-5.023c-.294-.809-.721-1.612-1.032-2.423a3.5,3.5,0,0,0-.335.932c-.328,1.647.785,3.233,1.368,4.846A8.815,8.815,0,0,1,405.736,255.625Z" transform="translate(-403.882 -243.485)"/><path d="M408.812,350.38a20.355,20.355,0,0,0-.382-5.457,1.7,1.7,0,0,0-.835-1.325,8.256,8.256,0,0,0-1.413-.311,1.925,1.925,0,0,1-1.3-1.077c-.086.425-.16.848-.222,1.273-.173,1.206.035,2.747,1.521,3.148a8.258,8.258,0,0,1,1.413.309,1.7,1.7,0,0,1,.835,1.327,20.643,20.643,0,0,1,.358,2.52C408.8,350.649,408.8,350.514,408.812,350.38Z" transform="translate(-404.47 -319.991)"/><path d="M442.911,377.089a5.382,5.382,0,0,1-4.825,2.592c-1.016-.052-2.16-.373-2.965.1-.539.319-.7.891-1.135,1.3-1.029.96-3,.634-4.529.222a4.952,4.952,0,0,1-1.6-.641,2.013,2.013,0,0,1-.792-1.286c.011.572,0,1.146-.035,1.718-.067,1.025-.142,2.2.827,2.911a4.948,4.948,0,0,0,1.6.639c1.526.412,3.5.745,4.529-.222.432-.4.6-.975,1.135-1.3.805-.479,1.949-.155,2.965-.1a5.393,5.393,0,0,0,4.825-2.592,6.771,6.771,0,0,0,.479-4.572A5.007,5.007,0,0,1,442.911,377.089Z" transform="translate(-422.684 -347.362)"/><path d="M525.193,225.467a5.262,5.262,0,0,0-1.118,1.051,2.212,2.212,0,0,0-.274,1.4,7.466,7.466,0,0,0,.384,1.789,7.442,7.442,0,0,1,1.016-.9,5.411,5.411,0,0,0,1.677-5.818,5.318,5.318,0,0,1-1.685,2.477Z" transform="translate(-501.435 -222.99)"/><path d="M513.553,303.1c-.986.755-2.432,1.193-3.051,2.153a2.768,2.768,0,0,0-.36,1.621,11.2,11.2,0,0,0,.239,1.938,1.789,1.789,0,0,1,.121-.218c.619-.96,2.065-1.4,3.051-2.151,1.69-1.293,1.832-3.34,1.332-5.164A3.869,3.869,0,0,1,513.553,303.1Z" transform="translate(-490.337 -286.689)"/></g><path class="l" d="M525.208,236.1s4.819-.25,5.237-2.283a5.018,5.018,0,0,0-1.726-4.318c-.421-.218-4.965-3.677-4.965-3.677l-7.324-4.678s-3.509-10.064-4.286-6.212S514.4,223.9,514.4,223.9s4.2,2.7,4.678,3.509a21.736,21.736,0,0,0,3.371,2.924Z" transform="translate(-435.328 -180.318)"/><path class="m" d="M546.5,301.212a9.846,9.846,0,0,1-2.618,4.04h-.822l-7.225.075L535,303.051l1.17-4.931.723.03a4.171,4.171,0,0,0,1.392.445,7.665,7.665,0,0,1,1.864.11.23.23,0,0,0,.136.02c.274-.028.559-.438.559-.438S547.641,298.316,546.5,301.212Z" transform="translate(-454.028 -248.715)"/><path class="g" d="M569.533,301.911a9.845,9.845,0,0,1-2.618,4.04h-.822a41.238,41.238,0,0,1,1.677-4.048c.337-.514-2.689-1.795-4.46-2.486.274-.028.559-.438.559-.438S570.675,299.015,569.533,301.911Z" transform="translate(-477.062 -249.415)"/><ellipse class="a" cx="8.234" cy="1.61" rx="8.234" ry="1.61" transform="translate(8.692 140.61)"/><ellipse class="a" cx="5.997" cy="1.172" rx="5.997" ry="1.172" transform="translate(148.18 130.427)"/><ellipse class="a" cx="5.997" cy="1.172" rx="5.997" ry="1.172" transform="translate(174.176 135.178)"/><ellipse class="a" cx="5.997" cy="1.172" rx="5.997" ry="1.172" transform="translate(133.923 144.962)"/><path class="c" d="M216.905,556.31s1.349,1.765-.622,4.426-3.595,4.909-2.935,6.569c0,0,2.973-4.944,5.393-5.013S219.568,559.284,216.905,556.31Z" transform="translate(-192.199 -458.787)"/><path class="g" d="M217.232,556.31a2.2,2.2,0,0,1,.276.559c2.361,2.775,3.619,5.364,1.349,5.429-2.113.06-4.65,3.841-5.257,4.8a1.758,1.758,0,0,0,.073.218s2.973-4.944,5.393-5.013S219.9,559.284,217.232,556.31Z" transform="translate(-192.526 -458.787)"/><path class="p" d="M245.181,566.625c0,.621-.069,1.118-.155,1.118s-.157-.5-.157-1.118.088-.328.173-.328S245.181,566,245.181,566.625Z" transform="translate(-217.968 -466.855)"/><path class="p" d="M246.518,570.482c-.544.3-1.019.477-1.06.4s.373-.373.911-.675.33-.08.373,0S247.062,570.184,246.518,570.482Z" transform="translate(-218.444 -469.971)"/><path class="c" d="M181.635,556.31s-1.349,1.765.622,4.426,3.595,4.909,2.941,6.569c0,0-2.982-4.944-5.4-5.013S178.972,559.284,181.635,556.31Z" transform="translate(-164.05 -458.787)"/><path class="g" d="M181.63,556.31a2.2,2.2,0,0,0-.276.559c-2.361,2.775-3.619,5.364-1.349,5.429,2.113.06,4.659,3.841,5.257,4.8a2.134,2.134,0,0,1-.071.218s-2.982-4.944-5.4-5.013S178.966,559.284,181.63,556.31Z" transform="translate(-164.044 -458.787)"/><path class="p" d="M181.43,566.625c0,.621.069,1.118.155,1.118s.157-.5.157-1.118-.088-.328-.173-.328S181.43,566,181.43,566.625Z" transform="translate(-166.351 -466.855)"/><path class="p" d="M175.359,570.482c.546.3,1.019.477,1.062.4s-.373-.373-.913-.675-.33-.08-.373,0S174.815,570.184,175.359,570.482Z" transform="translate(-161.141 -469.971)"/><ellipse class="a" cx="14.099" cy="2.164" rx="14.099" ry="2.164" transform="translate(7.047 117.68)"/><path class="q" d="M189.59,598.956l-.067.559-.1.777-.039.324-.1.779-.041.324-.1.777-1.077,8.841c-.1.79-1.387,1.405-2.945,1.405h-5.595c-1.558,0-2.846-.615-2.943-1.405l-1.079-8.843-.1-.777-.039-.324-.1-.779-.039-.324-.1-.777-.067-.559c-.054-.447.643-.824,1.524-.824h11.465C188.947,598.132,189.646,598.508,189.59,598.956Z" transform="translate(-161.188 -492.814)"/><path class="r" d="M89.266,572.5l-.093.779H74.983l-.093-.779Z" transform="translate(-60.933 -465.808)"/><path class="r" d="M89.718,578.42l-.093.777H75.705l-.1-.777Z" transform="translate(-61.519 -470.625)"/><path class="r" d="M90.17,584.33l-.1.777H76.425l-.1-.777Z" transform="translate(-62.105 -475.434)"/><circle class="a" cx="5.871" cy="5.871" r="5.871" transform="translate(27.674 17.333)"/><circle class="a" cx="3.634" cy="3.634" r="3.634" transform="translate(17.61 5.592)"/><circle class="a" cx="2.236" cy="2.236" r="2.236" transform="translate(0 15.097)"/></g></svg>